<svg xmlns="http://www.w3.org/2000/svg" viewBox="0 0 960 540" fill="none">
  <defs>
    <linearGradient id="bg" x1="80" y1="10" x2="887" y2="535" gradientUnits="userSpaceOnUse">
      <stop stop-color="#182142"/>
      <stop offset="1" stop-color="#070b17"/>
    </linearGradient>
    <linearGradient id="bar" x1="604" y1="0" x2="875" y2="0" gradientUnits="userSpaceOnUse">
      <stop stop-color="#54baff"/>
      <stop offset="1" stop-color="#747bff"/>
    </linearGradient>
    <radialGradient id="glow" cx="0" cy="0" r="1" gradientTransform="matrix(0 220 -292 0 487 270)" gradientUnits="userSpaceOnUse">
      <stop stop-color="#6863ee" stop-opacity=".16"/>
      <stop offset="1" stop-color="#070b17" stop-opacity="0"/>
    </radialGradient>
  </defs>
  <path fill="url(#bg)" d="M0 0h960v540H0z"/>
  <path fill="url(#glow)" d="M0 0h960v540H0z"/>
  <rect x="28" y="25" width="904" height="490" rx="15" fill="#080f1d" fill-opacity=".78" stroke="#a7a4ff" stroke-opacity=".2"/>
  <text x="54" y="58" fill="#aab9ff" font-family="Arial,sans-serif" font-size="12" letter-spacing="2">MENTOR / EXPLAINABLE ASSESSMENT</text>
  <rect x="54" y="85" width="372" height="395" rx="10" fill="#0c1729" stroke="#91a9ed" stroke-opacity=".18"/>
  <text x="80" y="122" fill="#93a9cb" font-family="Arial,sans-serif" font-size="10" letter-spacing="1.8">TRACK SIGNALS</text>
  <circle cx="240" cy="261" r="116" stroke="#617cae" stroke-opacity=".36"/>
  <circle cx="240" cy="261" r="83" stroke="#617cae" stroke-opacity=".24"/>
  <circle cx="240" cy="261" r="49" stroke="#617cae" stroke-opacity=".22"/>
  <path stroke="#738bb8" stroke-opacity=".23" d="M124 261h232M240 145v232"/>
  <path stroke="#53beff" stroke-width="2" stroke-opacity=".8" d="m159 304 44-34 31 12 57-68 34 14"/>
  <circle cx="159" cy="304" r="5" fill="#74d7ff"/>
  <circle cx="203" cy="270" r="5" fill="#74d7ff"/>
  <circle cx="234" cy="282" r="5" fill="#74d7ff"/>
  <circle cx="291" cy="214" r="6" fill="#9b9cff"/>
  <circle cx="325" cy="228" r="5" fill="#9b9cff"/>
  <rect x="145" y="400" width="190" height="36" rx="7" fill="#111f36"/>
  <text x="240" y="423" fill="#c2d7f2" font-family="Arial,sans-serif" font-size="11" text-anchor="middle">Confidence is not certainty</text>
  <rect x="451" y="85" width="455" height="395" rx="10" fill="#0c1729" stroke="#91a9ed" stroke-opacity=".18"/>
  <text x="480" y="122" fill="#93a9cb" font-family="Arial,sans-serif" font-size="10" letter-spacing="1.8">FEATURE CONTRIBUTIONS</text>
  <text x="480" y="166" fill="#e4edff" font-family="Arial,sans-serif" font-size="23" font-weight="600">Why this assessment?</text>
  <text x="480" y="202" fill="#8ba0bf" font-family="Arial,sans-serif" font-size="11">Track consistency</text>
  <rect x="480" y="216" width="385" height="8" rx="4" fill="#18263b"/>
  <rect x="480" y="216" width="300" height="8" rx="4" fill="url(#bar)"/>
  <text x="480" y="259" fill="#8ba0bf" font-family="Arial,sans-serif" font-size="11">Motion pattern</text>
  <rect x="480" y="273" width="385" height="8" rx="4" fill="#18263b"/>
  <rect x="480" y="273" width="248" height="8" rx="4" fill="url(#bar)"/>
  <text x="480" y="316" fill="#8ba0bf" font-family="Arial,sans-serif" font-size="11">Sensor disagreement</text>
  <rect x="480" y="330" width="385" height="8" rx="4" fill="#18263b"/>
  <rect x="480" y="330" width="132" height="8" rx="4" fill="#e7b76d"/>
  <rect x="480" y="368" width="385" height="76" rx="8" fill="#131b32" stroke="#a7a4ff" stroke-opacity=".18"/>
  <circle cx="504" cy="392" r="5" fill="#a49aff"/>
  <text x="520" y="396" fill="#cbd3f0" font-family="Arial,sans-serif" font-size="11">Inspect the evidence, then make your own call.</text>
  <text x="520" y="419" fill="#8293b4" font-family="Arial,sans-serif" font-size="10">Illustrative view · values are not live model output</text>
</svg>
